# AST/ASF file generated using VICON BodyLanguage
# -----------------------------------------------
:version 1.10
:name VICON
:units
  mass 1.0
  length 0.45
  angle deg
:documentation
   .ast/.asf automatically generated from VICON data using
   VICON BodyBuilder and BodyLanguage model FoxedUp or BRILLIANT.MOD
:root
   order TX TY TZ RX RY RZ
   axis XYZ
   position 0 0 0  
   orientation 0 0 0 
:bonedata
  begin
     id 1 
     name lhipjoint
     direction 0.646657 -0.683706 0.338203 
     length 2.4948 
     axis 0 0 0  XYZ
  end
  begin
     id 2 
     name lfemur
     direction 0.34202 -0.939693 0  
     length 6.79491  
     axis 0 0 20  XYZ
    dof rx ry rz
    limits (-160.0 20.0)
           (-70.0 70.0)
           (-60.0 70.0)
  end
  begin
     id 3 
     name ltibia
     direction 0.34202 -0.939693 0   
     length 7.56807   
     axis 0 0 20   XYZ
    dof rx
    limits (-10.0 170.0)
  end
  begin
     id 4 
     name lfoot
     direction 0.0679796 -0.186772 0.980048   
     length 2.53018   
     axis -90 7.62852e-016 20   XYZ
    dof rx rz
    limits (-45.0 90.0)
           (-70.0 20.0)
  end
  begin
     id 5 
     name ltoes
     direction 1.53625e-011 -4.21881e-011 1   
     length 1.26912   
     axis -90 7.62852e-016 20   XYZ
    dof rx
    limits (-90.0 20.0)
  end
  begin
     id 6 
     name rhipjoint
     direction -0.618868 -0.704065 0.348274   
     length 2.42265  
     axis 0 0 0  XYZ 
  end
  begin
     id 7 
     name rfemur
     direction -0.34202 -0.939693 0   
     length 6.73814   
     axis 0 0 -20   XYZ
    dof rx ry rz
    limits (-160.0 20.0)
           (-70.0 70.0)
           (-70.0 60.0)
  end
  begin
     id 8 
     name rtibia
     direction -0.34202 -0.939693 0   
     length 7.66799   
     axis 0 0 -20   XYZ
    dof rx
    limits (-10.0 170.0)
 end
 begin
     id 9 
     name rfoot
     direction -0.0727352 -0.199838 0.977125   
     length 2.57224  
     axis -90 -7.62852e-016 -20   XYZ
    dof rx rz
    limits (-45.0 90.0)
           (-20.0 70.0)
  end
  begin
     id 10 
     name rtoes
     direction -1.53501e-011 -4.21858e-011 1   
     length 1.28858   
     axis -90 -7.62852e-016 -20   XYZ
    dof rx
    limits (-90.0 20.0)
  end
  begin
     id 11 
     name lowerback
     direction -0.0172471 0.995767 -0.0902851   
     length 2.20206   
     axis 0 0 0   XYZ
    dof rx ry rz
    limits (-20.0 45.0)
           (-30.0 30.0)
           (-30.0 30.0)
  end
  begin
     id 12 
     name upperback
     direction -0.000110737 0.999714 0.0239043   
     length 2.19523   
     axis 0 0 0   XYZ
    dof rx ry rz
    limits (-20.0 45.0)
           (-30.0 30.0)
           (-30.0 30.0)
  end
  begin
     id 13 
     name thorax
     direction 0.00704869 0.997783 0.0661741   
     length 2.21977   
     axis 0 0 0   XYZ
    dof rx ry rz
    limits (-20.0 45.0)
           (-30.0 30.0)
           (-30.0 30.0)
  end
  begin
     id 14 
     name lowerneck
     direction -0.00407501 0.995527 0.0943846   
     length 1.83142   
     axis 0 0 0   XYZ
    dof rx ry rz
    limits (-20.0 45.0)
           (-30.0 30.0)
           (-30.0 30.0)
  end
  begin
     id 15 
     name upperneck
     direction 0.0640586 0.986486 -0.150807   
     length 1.84616   
     axis 0 0 0   XYZ
    dof rx ry rz
    limits (-20.0 45.0)
           (-30.0 30.0)
           (-30.0 30.0)
  end
  begin
     id 16
     name head
     direction 0.0188017 0.99791 -0.0618239  
     length 1.85932  
     axis 0 0 0   XYZ
    dof rx ry rz
    limits (-20.0 45.0)
           (-30.0 30.0)
           (-30.0 30.0)
  end
  begin
     id 17 
     name lclavicle
     direction 0.976074 0.206905 0.066852  
     length 3.81043  
     axis 0 0 0   XYZ
    dof ry rz
    limits (-20.0 10.0)
           (0.0 20.0)
  end
  begin
     id 18 
     name lhumerus
     direction 1 -4.48971e-011 1.86916e-027   
     length 5.37587   
     axis 180 -30 -90   XYZ
    dof rx ry rz
    limits (-60.0 90.0)
           (-90.0 90.0)
           (-90.0 90.0)
  end
  begin
     id 19
     name lradius
     direction 1 -4.48968e-011 1.69187e-027   
     length 3.35977   
     axis 180 -30 -90   XYZ
    dof rx
    limits (-10.0 170.0)
  end
  begin
     id 20
     name lwrist
     direction 1 -4.48968e-011 5.8978e-027   
     length 1.67988   
     axis -3.27506e-015 90 90   XYZ
    dof ry
    limits (-180.0 0.0)
 end
  begin
     id 21 
     name lhand
     direction 1 -4.49028e-011 1.18071e-026   
     length 0.561859   
     axis -7.52654e-015 90 90   XYZ
    dof rx rz
    limits (-90.0 90.0)
           (-45.0 45.0)
  end
  begin
     id 22 
     name lfingers
     direction 1 -4.48927e-011 2.35758e-026   
     length 0.452985   
     axis -1.50534e-014 90 90   XYZ
    dof rx
    limits (0.0 90.0)
  end
  begin
     id 23
     name lthumb
     direction 0.707107 -6.34898e-011 0.707107   
     length 0.650399   
     axis -90 45 5.69224e-014   XYZ
    dof rx rz
    limits (-45.0 45.0)
           (-45.0 45.0)
  end
  begin
     id 24 
     name rclavicle
     direction -0.988403 0.151789 0.00439714   
     length 3.6942  
     axis 0 0 0   XYZ 
    dof ry rz
    limits (-10.0 20.0)
           (-20.0 0.0)
  end
  begin
     id 25 
     name rhumerus
     direction -1 -4.48978e-011 1.62495e-027  
     length 5.22819   
     axis 180 30 90   XYZ
    dof rx ry rz
    limits (-90.0 60.0)
           (-90.0 90.0)
           (-90.0 90.0)
  end
  begin
     id 26 
     name rradius
     direction -1 -4.48961e-011 3.47796e-027   
     length 3.40764   
     axis 180 30 90   XYZ
    dof rx
    limits (-10.0 170.0)
  end
  begin
     id 27 
     name rwrist
     direction -1 -4.48949e-011 5.89602e-027   
     length 1.70382   
     axis -3.27506e-015 -90 -90   XYZ
    dof ry
    limits (-180.0 0.0)
  end
  begin
     id 28
     name rhand
     direction -1 -4.48977e-011 1.17973e-026   
     length 0.583255   
     axis -7.52654e-015 -90 -90   XYZ
    dof rx rz
    limits (-90.0 90.0)
           (-45.0 45.0)
  end
  begin
     id 29
     name rfingers
     direction -1 -4.49099e-011 2.36408e-026   
     length 0.470235   
     axis -1.50534e-014 -90 -90   XYZ
    dof rx
    limits (0.0 90.0)
  end
  begin
     id 30
     name rthumb
     direction -0.707107 -6.35011e-011 0.707107   
     length 0.675167   
     axis -90 -45 -5.69224e-014   XYZ
    dof rx rz
    limits (-45.0 45.0)
           (-45.0 45.0)
  end
:hierarchy
  begin
    root lhipjoint rhipjoint lowerback
    lhipjoint lfemur
    lfemur ltibia
    ltibia lfoot
    lfoot ltoes
    rhipjoint rfemur
    rfemur rtibia
    rtibia rfoot
    rfoot rtoes
    lowerback upperback
    upperback thorax
    thorax lowerneck lclavicle rclavicle
    lowerneck upperneck
    upperneck head
    lclavicle lhumerus
    lhumerus lradius
    lradius lwrist
    lwrist lhand lthumb
    lhand lfingers
    rclavicle rhumerus
    rhumerus rradius
    rradius rwrist
    rwrist rhand rthumb
    rhand rfingers
  end

#!OML:ASF G:\JayActor3\Patient Classification 1\Patient 1\Session 2\male.ASF
:FULLY-SPECIFIED
:DEGREES
1545
root -30.4435 16.4857 -3.12724 547.486 79.5932 181.998
lowerback 5.64126 4.47521 5.19577
upperback 8.75426 6.65597 -2.60113
thorax 6.97952 3.96573 -5.53768
lowerneck -1.28521 11.4153 4.32026
upperneck 13.7712 15.6741 -1.28947
head 4.80485 7.90288 -0.307151
rclavicle -3.28616e-015 1.27719e-014
rhumerus -33.0704 2.2657 -96.309
rradius 61.1087
rwrist 0.605156
rhand -12.9713 3.003
rfingers 7.12502
rthumb 13.1208 -26.5642
lclavicle -3.28616e-015 1.27719e-014
lhumerus -21.9058 -21.1871 93.0713
lradius 42.2722
lwrist 23.9498
lhand -10.6449 17.5147
lfingers 7.12502
lthumb 15.3626 46.924
rfemur -36.0303 2.5879 21.5799
rtibia 41.1598
rfoot -16.3815 -8.12328
rtoes 23.1983
lfemur -9.93844 -1.65539 -14.7924
ltibia 60.5327
lfoot 14.3497 -0.807651
ltoes -10.0829
1546
root -30.2836 16.4983 -3.10843 549.497 79.1838 184.359
lowerback 5.69205 4.31695 5.50665
upperback 8.74186 6.43491 -2.36548
thorax 6.91221 3.86172 -5.47291
lowerneck -1.67427 10.7015 3.74196
upperneck 14.2868 14.6817 -0.683044
head 4.90852 7.42776 -0.0662343
rclavicle 2.65564e-015 -9.47954e-015
rhumerus -32.9481 2.51147 -96.2682
rradius 60.4888
rwrist 0.596955
rhand -12.9695 2.93716
rfingers 7.12502
rthumb 13.1226 -26.6299
lclavicle 2.65564e-015 -9.47954e-015
lhumerus -21.8661 -21.1604 93.2168
lradius 42.2854
lwrist 24.057
lhand -10.8962 17.2293
lfingers 7.12502
lthumb 15.1205 46.6569
rfemur -35.069 2.17149 22.3496
rtibia 41.2076
rfoot -16.5955 -8.07627
rtoes 23.4223
lfemur -11.5531 -2.13566 -14.2785
ltibia 63.0865
lfoot 13.7269 -0.922778
ltoes -10.8329
1547
root -30.1248 16.5106 -3.0911 551.229 78.8048 186.453
lowerback 5.74468 4.17216 5.78554
upperback 8.73791 6.23458 -2.14235
thorax 6.85385 3.76762 -5.40241
lowerneck -2.0406 9.98457 3.18624
upperneck 14.7955 13.6883 -0.106352
head 5.02198 6.9536 0.164035
rclavicle -7.44076e-014 3.62658e-014
rhumerus -32.8029 2.72586 -96.2239
rradius 59.8553
rwrist 0.616063
rhand -12.93 2.83885
rfingers 7.12502
rthumb 13.1607 -26.7258
lclavicle -7.44076e-014 3.62658e-014
lhumerus -21.813 -21.1141 93.3583
lradius 42.2861
lwrist 24.1805
lhand -11.1276 16.9775
lfingers 7.12502
lthumb 14.8976 46.4218
rfemur -34.0934 1.75585 23.0794
rtibia 41.237
rfoot -16.8193 -8.00339
rtoes 23.4874
lfemur -13.1081 -2.5685 -13.8294
ltibia 65.3911
lfoot 12.6082 -1.15881
ltoes -11.3242
1548
root -29.9673 16.5224 -3.07462 552.674 78.4698 188.257
lowerback 5.7814 4.04255 6.00722
upperback 8.74611 6.05565 -1.93394
thorax 6.8158 3.68256 -5.31283
lowerneck -2.38224 9.27064 2.64025
upperneck 15.2871 12.701 0.447613
head 5.13992 6.48334 0.386906
rclavicle -1.36292e-014 -3.49116e-015
rhumerus -32.6244 2.91123 -96.1716
rradius 59.2164
rwrist 0.65625
rhand -12.8277 2.70645
rfingers 7.12502
rthumb 13.2593 -26.8518
lclavicle -1.36292e-014 -3.49116e-015
lhumerus -21.7401 -21.0214 93.4944
lradius 42.2816
lwrist 24.2898
lhand -11.3357 16.7846
lfingers 7.12502
lthumb 14.6971 46.2437
rfemur -33.1244 1.35402 23.7524
rtibia 41.2622
rfoot -17.0646 -7.91556
rtoes 23.354
lfemur -14.6072 -2.95286 -13.4574
ltibia 67.4242
lfoot 11.277 -1.49025
ltoes -11.7195
1549
root -29.8111 16.5337 -3.05876 553.801 78.1835 189.736
lowerback 5.80162 3.93313 6.16146
upperback 8.76373 5.90442 -1.74925
thorax 6.79649 3.60925 -5.20806
lowerneck -2.70552 8.55717 2.09667
upperneck 15.7701 11.7137 1.00409
head 5.26343 6.01506 0.610868
rclavicle 1.20321e-013 -4.50123e-014
rhumerus -32.4145 3.0417 -96.1128
rradius 58.5764
rwrist 0.71474
rhand -12.6651 2.54721
rfingers 7.12502
rthumb 13.416 -27.0008
lclavicle 1.20321e-013 -4.50123e-014
lhumerus -21.6514 -20.9087 93.6246
lradius 42.275
lwrist 24.3775
lhand -11.5143 16.6278
lfingers 7.12502
lthumb 14.525 46.0993
rfemur -32.1738 0.969433 24.3513
rtibia 41.2946
rfoot -17.3333 -7.8175
rtoes 23.0715
lfemur -16.0535 -3.29692 -13.1787
ltibia 69.1715
lfoot 9.96027 -1.90965
ltoes -12.0196
1550
root -29.6565 16.5447 -3.04327 554.646 77.945 190.915
lowerback 5.80771 3.84442 6.24822
upperback 8.78479 5.78092 -1.59119
thorax 6.78847 3.54719 -5.09185
lowerneck -3.00984 7.84036 1.55755
upperneck 16.2496 10.7194 1.57508
head 5.39351 5.54645 0.838776
rclavicle -7.8433e-014 2.56929e-014
rhumerus -32.1797 3.11213 -96.0496
rradius 57.9382
rwrist 0.766557
rhand -12.4281 2.35536
rfingers 7.12502
rthumb 13.6445 -27.1774
lclavicle -7.8433e-014 2.56929e-014
lhumerus -21.5629 -20.802 93.747
lradius 42.285
lwrist 24.4576
lhand -11.6909 16.5121
lfingers 7.12502
lthumb 14.3549 45.9958
rfemur -31.2526 0.603351 24.8766
rtibia 41.3392
rfoot -17.6259 -7.73043
rtoes 22.6549
lfemur -17.454 -3.59743 -12.9901
ltibia 70.629
lfoot 8.69156 -2.43531
ltoes -12.1985
1551
root -29.5036 16.5553 -3.02843 555.239 77.7447 191.819
lowerback 5.80505 3.76712 6.27045
upperback 8.80388 5.67227 -1.45764
thorax 6.78106 3.48934 -4.96483
lowerneck -3.31117 7.12442 1.00962
upperneck 16.7438 9.72396 2.16634
head 5.53788 5.08008 1.07588
rclavicle -2.96065e-014 8.92046e-015
rhumerus -31.9301 3.15504 -95.986
rradius 57.297
rwrist 0.796879
rhand -12.1336 2.14932
rfingers 7.12502
rthumb 13.9283 -27.3642
lclavicle -2.96065e-014 8.92046e-015
lhumerus -21.4756 -20.6921 93.8587
lradius 42.3141
lwrist 24.5168
lhand -11.8595 16.4206
lfingers 7.12502
lthumb 14.1924 45.9157
rfemur -30.3713 0.234172 25.3331
rtibia 41.3967
rfoot -17.9286 -7.65866
rtoes 22.1667
lfemur -18.8111 -3.85652 -12.8898
ltibia 71.8042
lfoot 7.32248 -3.07226
ltoes -12.5698
1552
root -29.3526 16.5656 -3.01458 555.651 77.5727 192.52
lowerback 5.80456 3.69807 6.24908
upperback 8.81577 5.57475 -1.34578
thorax 6.76404 3.43455 -4.83689
lowerneck -3.6015 6.40976 0.469748
upperneck 17.251 8.7281 2.76524
head 5.6967 4.61673 1.31515
rclavicle -2.89232e-014 2.40529e-014
rhumerus -31.6772 3.17955 -95.9248
rradius 56.6518
rwrist 0.791172
rhand -11.773 1.93154
rfingers 7.12502
rthumb 14.2758 -27.5578
lclavicle -2.89232e-014 2.40529e-014
lhumerus -21.4002 -20.5982 93.9594
lradius 42.3718
lwrist 24.5605
lhand -12.0076 16.3197
lfingers 7.12502
lthumb 14.0496 45.8248
rfemur -29.525 -0.136676 25.7356
rtibia 41.461
rfoot -18.2352 -7.61627
rtoes 21.625
lfemur -20.1246 -4.07368 -12.8657
ltibia 72.7104
lfoot 5.81293 -3.78299
ltoes -13.0735
1553
root -29.2032 16.575 -3.00187 555.985 77.416 193.129
lowerback 5.80792 3.63749 6.2085
upperback 8.8186 5.48859 -1.2464
thorax 6.73626 3.38396 -4.71201
lowerneck -3.86446 5.69682 -0.0424115
upperneck 17.7625 7.73297 3.35323
head 5.86617 4.15702 1.54661
rclavicle 4.06266e-014 -2.48481e-015
rhumerus -31.4386 3.18737 -95.8634
rradius 56.0093
rwrist 0.747568
rhand -11.3778 1.71964
rfingers 7.12502
rthumb 14.6565 -27.7424
lclavicle 4.06266e-014 -2.48481e-015
lhumerus -21.3468 -20.5446 94.0568
lradius 42.4652
lwrist 24.5821
lhand -12.1336 16.2147
lfingers 7.12502
lthumb 13.9283 45.7282
rfemur -28.7062 -0.517594 26.1115
rtibia 41.5258
rfoot -18.5368 -7.60092
rtoes 21.0534
lfemur -21.3991 -4.25879 -12.8938
ltibia 73.3655
lfoot 4.21004 -4.49091
ltoes -13.5875
